<?xml version="1.0" encoding="utf-8"?>
<svg version="1.1" xmlns="http://www.w3.org/2000/svg" xmlns:xlink="http://www.w3.org/1999/xlink" x="0px" y="0px" width="16px" height="16px" viewBox="0 0 16 16" xml:space="preserve">
  <path fill="#88B237" d="M16,13.25c0,1.513-1.237,2.75-2.75,2.75h-10.5c-1.513,0-2.75-1.237-2.75-2.75V2.75C0,1.237,1.237,0,2.75,0h10.5c1.513,0,2.75,1.237,2.75,2.75V13.25z"/>
  <path fill="#FFFFFF" d="M7.074,11.562c-0.234,0.232-0.615,0.232-0.85,0L3.217,8.557C2.984,8.322,2.984,7.94,3.218,7.707l0.564-0.566c0.234-0.233,0.615-0.233,0.85,0.001l1.592,1.592c0.234,0.232,0.615,0.232,0.85,0l4.295-4.297c0.234-0.232,0.615-0.232,0.85,0l0.564,0.566c0.234,0.232,0.234,0.615,0,0.848L7.074,11.562z"/>
</svg>
