<svg xmlns="http://www.w3.org/2000/svg" width="16" height="16" viewBox="-423.5 440.5 16 16"><switch><g><path fill="#585858" d="M-438.882 449.613l5.889 5.887 1.113-1.113-5.891-5.887 5.891-5.887-1.113-1.113-5.889 5.887-5.888-5.887-1.11 1.113 5.886 5.887-5.886 5.887 1.11 1.113 5.888-5.887z"/><path fill="#F55" d="M-392.129 449.557l5.59 5.59 1.059-1.057-5.592-5.59 5.592-5.59-1.059-1.057-5.59 5.59-5.59-5.59-1.055 1.057 5.588 5.59-5.588 5.59 1.055 1.057 5.59-5.59z"/><path fill="none" stroke="#585858" stroke-width="1.2" stroke-miterlimit="10" d="M-409.136 442.136l-12.728 12.728M-421.864 442.136l12.728 12.728"/></g></switch></svg>