<svg id="Layer_1" data-name="Layer 1" xmlns="http://www.w3.org/2000/svg" viewBox="0 0 17 17"><defs><style>.cls-1,.cls-2{fill:#585853;}.cls-2{fill-rule:evenodd;}</style></defs><title>Comment</title><rect class="cls-1" x="3.42" y="4.15" width="10.16" height="1"/><rect class="cls-1" x="3.42" y="6.95" width="10.16" height="1"/><path class="cls-2" d="M38.64,16H25.42a1.89,1.89,0,0,0-1.89,1.88v8.49a1.89,1.89,0,0,0,1.89,1.88h2.33v3.78c0,.63.22,1,.57,1a1.22,1.22,0,0,0,.77-.42l4.33-4.33h5.22a1.89,1.89,0,0,0,1.89-1.88V17.92A1.89,1.89,0,0,0,38.64,16Zm1,10.37a1,1,0,0,1-1,.94H33L28.7,31.68V27.35H25.42a1,1,0,0,1-1-.94V17.92a1,1,0,0,1,1-.94H38.64a1,1,0,0,1,1,.94Z" transform="translate(-23.53 -16.04)"/></svg>