<svg xmlns="http://www.w3.org/2000/svg" width="16" height="16"><switch><g><circle fill="#A9A9A9" cx="-18.837" cy="8" r="8"/><text transform="translate(-20.828 11.447)" fill="#FFF" font-family="'OpenSans-Bold'" font-size="9">?</text><circle fill="#BBB" cx="37.661" cy="8" r="8"/><g fill="#FFF"><path d="M36.884 9.066V8.74c0-.281.059-.525.18-.733.119-.208.344-.429.658-.663.312-.221.512-.398.609-.537a.773.773 0 00.146-.461c0-.19-.07-.335-.211-.436-.145-.099-.336-.148-.588-.148-.439 0-.941.144-1.504.43l-.479-.962a4.187 4.187 0 012.077-.55c.604 0 1.084.146 1.438.436.355.29.535.677.535 1.16 0 .322-.074.601-.223.835-.146.234-.424.498-.834.791-.279.208-.459.366-.533.475a.745.745 0 00-.111.428v.264h-1.16v-.003zM36.743 11.061c0-.246.064-.432.197-.558.131-.126.324-.188.576-.188.242 0 .43.064.562.193s.198.312.198.553c0 .232-.065.414-.2.549-.138.136-.322.199-.562.199-.246 0-.438-.062-.572-.192-.132-.135-.199-.318-.199-.556z"/></g><g><circle fill="#CCC" cx="8" cy="8" r="8"/><g fill="#FFF"><path d="M7.223 8.801v-.326c0-.281.059-.525.18-.733.119-.208.342-.429.658-.663.31-.221.511-.398.609-.537a.773.773 0 00.146-.461.5.5 0 00-.211-.436c-.142-.099-.336-.148-.588-.148-.438 0-.94.144-1.504.43l-.478-.962a4.176 4.176 0 012.074-.55c.604 0 1.084.146 1.438.436.357.29.535.677.535 1.16 0 .322-.072.601-.222.835-.147.234-.423.498-.834.791-.28.208-.459.366-.534.475a.745.745 0 00-.111.428v.265h-1.16l.002-.004zM7.082 10.986c0-.245.064-.432.197-.557.131-.128.324-.188.576-.188.242 0 .43.063.562.192.131.129.199.312.199.553 0 .231-.066.414-.201.55-.138.134-.321.198-.562.198-.246 0-.438-.062-.57-.193-.135-.132-.201-.314-.201-.555z"/></g></g></g></switch></svg>