<svg xmlns="http://www.w3.org/2000/svg" width="16" height="16" viewBox="-423.5 440.5 16 16"><switch><g><path fill="#585858" d="M-353.769 440.5H-364.432c-.988 0-1.779.8-1.779 1.779v12.445c0 .976.791 1.775 1.779 1.775H-351.989c.979 0 1.777-.8 1.777-1.779v-10.664l-3.557-3.556zm-1.564 1.086v3.292h-6.98v-3.292h6.98zm-6.816 13.828v-5.828h7.873v5.828h-7.873zm10.853-.693a.702.702 0 01-.693.693h-1.201V448.5h-10.043v6.914h-1.199a.692.692 0 01-.691-.689V442.28c0-.383.312-.693.691-.693h1.033v4.378h9.152v-4.378h.029l2.92 2.919v10.216h.002zM-382.414 440.5H-393.079c-.988 0-1.778.8-1.778 1.779v12.445c0 .976.79 1.775 1.778 1.775h12.444c.977 0 1.777-.8 1.777-1.779v-10.664l-3.556-3.556zm-1.566 1.086v3.292h-6.98v-3.292h6.98zm-6.815 13.828v-5.828h7.874v5.828h-7.874zm10.852-.693a.7.7 0 01-.691.693h-1.201V448.5h-10.043v6.914h-1.2a.693.693 0 01-.693-.689V442.28c0-.383.311-.693.693-.693h1.033v4.378h9.151v-4.378h.031l2.92 2.919v10.215zM-322.784 440.5H-333.447c-.988 0-1.779.8-1.779 1.779v12.445c0 .976.791 1.775 1.779 1.775h12.443c.979 0 1.775-.8 1.775-1.779v-10.664l-3.555-3.556zm-1.565 1.086v3.292h-6.98v-3.292h6.98zm-6.814 13.828v-5.828h7.871v5.828h-7.871zm10.851-.693a.702.702 0 01-.693.693h-1.201V448.5h-10.043v6.914h-1.199a.692.692 0 01-.691-.689V442.28c0-.383.312-.693.691-.693h1.033v4.378h9.152v-4.378h.029l2.92 2.919v10.216h.002z"/><path fill="#585858" d="M-323.306 449.6v4.715h-7.844V449.6h7.844m1.1-1.1h-10.043v6.914h10.043V448.5zM-324.388 442.686v2.172h-6.928v-2.172h6.928m1.1-1.1h-9.127v4.373h9.127v-4.373zM-289.565 440.5H-300.229c-.988 0-1.779.8-1.779 1.779v12.445c0 .978.791 1.775 1.779 1.775h12.443c.979 0 1.775-.8 1.775-1.779v-10.664l-3.554-3.556z"/><path fill="none" stroke="#FFF" stroke-width="1.1" stroke-miterlimit="10" d="M-298.624 455.414v-6.372h8.918v6.372M-290.644 441.586v3.831h-7.98v-3.831"/><path fill="none" stroke="#585858" stroke-miterlimit="10" d="M-389.462 451.334h5.208M-389.462 453.542h5.208"/><path fill="#585858" d="M-391.441 441.125h4.792v4.25h-4.792zM-384.816 441.125h1.541v4.25h-1.541zM-411.793 440.5h-8.957a2.757 2.757 0 00-2.75 2.75v10.5a2.757 2.757 0 002.75 2.75h10.5a2.757 2.757 0 002.75-2.75v-8.957l-4.293-4.293zm3.293 13.75c0 .688-.562 1.25-1.25 1.25h-11.5c-.688 0-1.25-.562-1.25-1.25v-11.5c0-.688.562-1.25 1.25-1.25h9.042l3.708 3.707v9.043zM-408.5 427.774a2.757 2.757 0 01-2.75 2.75h-10.5a2.757 2.757 0 01-2.75-2.75v-10.5a2.757 2.757 0 012.75-2.75h10.5a2.757 2.757 0 012.75 2.75v10.5z"/><path fill="#FFF" d="M-409.5 428.274c0 .688-.562 1.25-1.25 1.25h-11.5c-.688 0-1.25-.562-1.25-1.25v-11.5c0-.688.562-1.25 1.25-1.25h11.5c.688 0 1.25.562 1.25 1.25v11.5z"/><path fill="#51FF95" d="M-405.45 440.346l.707-.707 7.005 7.004-.707.707z"/><path fill="#585858" d="M-411.5 450.5v5h-8v-5h8m1-1h-10v7h10v-7zM-413.5 441.496v4h-6v-4h6m1-1h-8v6h8v-6z"/><path fill="#585858" d="M-418 453.5h5v1h-5zM-418 451.5h5v1h-5zM-415.5 442.5h1v2h-1zM-447.432 440.5h-8.957a2.757 2.757 0 00-2.75 2.75v10.5a2.757 2.757 0 002.75 2.75h10.5a2.757 2.757 0 002.75-2.75v-8.957l-4.293-4.293zm3.294 13.75c0 .688-.562 1.25-1.25 1.25h-11.5c-.688 0-1.25-.562-1.25-1.25v-11.5c0-.688.562-1.25 1.25-1.25h9.042l3.708 3.707v9.043z"/><path fill="#585858" d="M-447.138 450.5v5h-8v-5h8m1-1h-10v7h10v-7zM-449.138 441.5v3h-6v-3h6m1-1h-8v5h8v-5z"/><path fill="#585858" d="M-453.638 453.5h5v1h-5zM-453.638 451.5h5v1h-5zM-456.138 440.5h4v5h-4zM-450.138 440.5h2v5h-2z"/></g></switch></svg>