<?xml version="1.0" encoding="utf-8"?>
<!-- Generator: Adobe Illustrator 23.0.3, SVG Export Plug-In . SVG Version: 6.00 Build 0)  -->
<svg version="1.1" id="Layer_1" xmlns="http://www.w3.org/2000/svg" xmlns:xlink="http://www.w3.org/1999/xlink" x="0px" y="0px"
	 viewBox="0 0 480 480" style="enable-background:new 0 0 480 480;" xml:space="preserve">
<style type="text/css">
	.st0{fill:#585858;}
</style>
<path class="st0" d="M240,0C107.5,0,0,107.5,0,240s107.5,240,240,240c7.2,0,14.4-0.3,21.6-1c6.7-0.6,13.3-1.5,19.8-2.7l2.5-0.4
	c121.9-22.7,206.4-134.6,195-258S364,0,240,0z M220.7,463.2h-0.6c-6.2-0.6-12.4-1.4-18.5-2.4c-0.4-0.1-0.7-0.1-1-0.2
	c-6-1.1-11.9-2.4-17.8-3.9l-1.4-0.4c-5.7-1.6-11.4-3.4-16.9-5.4c-0.6-0.2-1.2-0.4-1.7-0.6c-5.5-2-10.8-4.3-16.1-6.7
	c-0.7-0.3-1.3-0.6-2-0.9c-5.2-2.4-10.3-5.1-15.3-7.9c-0.7-0.4-1.4-0.8-2.1-1.2c-4.9-2.9-9.7-5.9-14.4-9.2c-0.7-0.5-1.4-1-2.1-1.5
	c-4.6-3.3-9.1-6.8-13.5-10.4l-1.2-1.1V344c0.1-48.6,39.4-87.9,88-88h112c48.6,0.1,87.9,39.4,88,88v67.5l-1.1,0.9
	c-4.5,3.7-9.1,7.3-13.8,10.6c-0.6,0.4-1.3,0.9-1.9,1.3c-4.8,3.3-9.6,6.4-14.6,9.3c-0.6,0.4-1.3,0.7-1.9,1.1
	c-5.1,2.9-10.2,5.6-15.4,8c-0.6,0.3-1.2,0.5-1.8,0.8c-5.3,2.5-10.7,4.7-16.2,6.7c-0.5,0.2-1.1,0.4-1.6,0.6c-5.6,2-11.3,3.8-17,5.4
	l-1.4,0.3c-5.9,1.6-11.8,2.9-17.8,4c-0.3,0.1-0.7,0.1-1,0.2c-6.1,1.1-12.3,1.9-18.5,2.5h-0.6c-6.4,0.6-12.8,0.8-19.3,0.8
	S227.1,463.7,220.7,463.2z M400,396.6V344c-0.1-57.4-46.6-103.9-104-104H184c-57.4,0.1-103.9,46.6-104,104v52.6
	C-6.2,308.7-5.2,167.7,82.1,80.9c87.4-86.8,228.4-86.8,315.7,0C485.2,167.7,486.2,308.7,400,396.6L400,396.6z"/>
<path class="st0" d="M240,64c-44.2,0-80,35.8-80,80s35.8,80,80,80s80-35.8,80-80C320,99.8,284.2,64,240,64z M240,208
	c-35.3,0-64-28.7-64-64s28.7-64,64-64s64,28.7,64,64C304,179.3,275.3,208,240,208z"/>
</svg>
