<?xml version="1.0" encoding="utf-8"?>
<!-- Generator: Adobe Illustrator 16.0.0, SVG Export Plug-In . SVG Version: 6.00 Build 0)  -->
<!DOCTYPE svg PUBLIC "-//W3C//DTD SVG 1.1//EN" "http://www.w3.org/Graphics/SVG/1.1/DTD/svg11.dtd">
<svg version="1.1" id="Layer_1" xmlns="http://www.w3.org/2000/svg" xmlns:xlink="http://www.w3.org/1999/xlink" x="0px" y="0px"
	 width="16px" height="16px" viewBox="0 0 16 16" enable-background="new 0 0 16 16" xml:space="preserve">
<g>
	<path fill="#88B237" d="M16.001,13.25c0,1.513-1.237,2.75-2.75,2.75h-10.5c-1.513,0-2.75-1.237-2.75-2.75V2.75
		C0.001,1.237,1.238,0,2.751,0h10.5c1.513,0,2.75,1.237,2.75,2.75V13.25z"/>
</g>
<path fill="#FFFFFF" d="M7.074,11.562c-0.234,0.232-0.615,0.232-0.85,0L3.217,8.557C2.984,8.322,2.984,7.94,3.218,7.707l0.564-0.566
	c0.234-0.233,0.615-0.233,0.85,0.001l1.592,1.592c0.234,0.232,0.615,0.232,0.85,0l4.295-4.297c0.234-0.232,0.615-0.232,0.85,0
	l0.564,0.566c0.234,0.232,0.234,0.615,0,0.848L7.074,11.562z"/>
</svg>
