<svg xmlns="http://www.w3.org/2000/svg" width="16" height="16"><switch><g><path fill="#F55" d="M31.059 9.057l5.59 5.59 1.059-1.057L32.115 8l5.592-5.59-1.059-1.057-5.59 5.59-5.59-5.59-1.054 1.057L30.002 8l-5.588 5.59 1.055 1.057 5.59-5.59zM-16.969-3.969h1v18h-1zM1.282-20.323l.707-.707L14.717-8.303l-.707.707z"/><path fill="#F55" d="M14.01-21.03l.707.707L1.99-7.596l-.707-.707z"/><path fill="none" stroke="#F55" stroke-miterlimit="10" d="M-8.875-5.142v18"/><path fill="none" stroke="#F55" stroke-width="1.2" stroke-miterlimit="10" d="M14.364 1.636L1.636 14.364M1.636 1.636l12.728 12.728"/></g></switch></svg>